<?xml version="1.0" encoding="utf-8"?>
<!-- Generator: Adobe Illustrator 16.0.0, SVG Export Plug-In . SVG Version: 6.00 Build 0)  -->
<!DOCTYPE svg PUBLIC "-//W3C//DTD SVG 1.1//EN" "http://www.w3.org/Graphics/SVG/1.1/DTD/svg11.dtd">
<svg version="1.1" id="Calque_1" xmlns="http://www.w3.org/2000/svg" xmlns:xlink="http://www.w3.org/1999/xlink" x="0px" y="0px"
	 width="1280px" height="800px" viewBox="0 0 1280 800" enable-background="new 0 0 1280 800" xml:space="preserve">
<g enable-background="new    ">
	<path fill="#F99C3D" d="M1332.263,642.095c0,49.266-12.766,90.328-38.266,123.172s-61.438,49.266-107.797,49.266
		c-22.422,0-43.484-4.641-63.188-13.953c-19.703-9.297-38.438-20.641-56.219-34.047c-17.781-13.391-34.781-28.516-51-45.359
		c-16.234-16.844-32.078-33.047-47.531-48.609c-16.234,15.562-32.469,31.547-48.688,47.953
		c-16.234,16.422-33.047,31.547-50.438,45.375s-35.75,25.062-55.062,33.688c-19.312,8.641-40.562,12.953-63.75,12.953
		c-22.406,0-42.5-4.312-60.281-12.938s-33.047-20.266-45.797-34.938c-12.75-14.656-22.609-32.344-29.562-53.047
		s-10.422-43.125-10.422-67.281c0-23.281,3.469-45.281,10.422-65.984s16.609-38.812,28.984-54.344s27.25-27.812,44.641-36.875
		c17.375-9.062,36.891-13.594,58.547-13.594c21.625,0,42.5,4.766,62.594,14.266s39.406,21.391,57.953,35.641
		s36.125,29.812,52.75,46.656c16.609,16.844,32.641,32.609,48.109,47.297c14.688-14.688,30.328-30.453,46.953-47.297
		c16.609-16.844,34.188-32.406,52.734-46.656s37.672-26.141,57.391-35.641c19.703-9.5,39.984-14.266,60.859-14.266
		c21.625,0,41.531,4.328,59.688,12.969c18.156,8.656,33.625,20.328,46.375,35.016s22.609,32.406,29.562,53.156
		S1332.263,617.892,1332.263,642.095z M941.544,645.61c-13.156-12.031-27.453-25.594-42.922-40.656s-31.516-29.047-48.141-41.953
		s-33.844-23.875-51.625-32.906s-35.953-13.562-54.516-13.562c-32.484,0-57.625,12.703-75.406,38.078
		c-17.781,25.391-26.672,54.859-26.672,88.422c0,37,9.281,67.344,27.844,91c18.562,23.672,45.234,35.5,80.047,35.5
		c18.547,0,36.516-3.859,53.922-11.609s34.219-17.859,50.469-30.344c16.234-12.469,31.703-26.031,46.391-40.656
		S929.169,658.517,941.544,645.61z M1294.263,643.392c0-36.25-9.281-66.453-27.844-90.609s-44.469-36.25-77.719-36.25
		c-17.016,0-34.422,4.531-52.203,13.594s-35.188,20.078-52.203,33.016s-33.25,26.969-48.719,42.062s-29.375,28.688-41.75,40.766
		c13.141,12.953,27.062,26.766,41.75,41.438s30.156,28.266,46.406,40.766c16.234,12.516,33.047,22.875,50.453,31.062
		c17.406,8.203,35.391,12.297,53.953,12.297c34.797,0,61.469-11.641,80.031-34.953
		C1284.981,713.282,1294.263,682.22,1294.263,643.392z"/>
</g>
</svg>
