<svg xmlns="http://www.w3.org/2000/svg" xmlns:xlink="http://www.w3.org/1999/xlink" version="1.1" id="Layer_1" x="0px" y="0px" width="100px" height="100px" viewBox="0 0 100 100" enable-background="new 0 0 100 100" xml:space="preserve">
<g>
	<path fill="#000000" d="M21.806,52.987c0,13.921,11.286,25.207,25.207,25.207S72.22,66.908,72.22,52.987   c0-3.817-0.853-7.434-2.371-10.676l-6.544,6.544c0.334,1.322,0.514,2.706,0.514,4.132c0,9.28-7.525,16.805-16.806,16.805   s-16.805-7.524-16.805-16.805s7.524-16.806,16.805-16.806c1.426,0,2.81,0.18,4.132,0.514l6.544-6.544   c-3.242-1.519-6.858-2.371-10.676-2.371C33.092,27.78,21.806,39.066,21.806,52.987z"/>
	<path fill="#000000" d="M82.024,17.976L82.022,5L70.293,16.729l-2.61,10.56L49.875,45.096c-0.895-0.325-1.855-0.511-2.862-0.511   c-4.64,0-8.402,3.762-8.402,8.402c0,4.64,3.763,8.402,8.402,8.402c4.641,0,8.402-3.763,8.402-8.402   c0-1.007-0.186-1.968-0.511-2.862l17.807-17.807l10.561-2.611L95,17.978L82.024,17.976z"/>
	<g>
		<polygon fill="#000000" points="84.658,35.45 76.786,37.396 84.658,35.45   "/>
		<path fill="#000000" d="M84.658,35.45L84.658,35.45l-7.872,1.946c2.446,4.661,3.837,9.962,3.837,15.591    c0,18.561-15.049,33.61-33.61,33.61c-18.561,0-33.61-15.05-33.61-33.61c0-18.562,15.05-33.61,33.61-33.61    c5.629,0,10.93,1.392,15.591,3.837l1.946-7.872l0,0l0.118-0.477c-5.369-2.491-11.347-3.891-17.655-3.891    C23.811,10.975,5,29.785,5,52.987S23.811,95,47.013,95s42.013-18.811,42.013-42.013c0-6.309-1.398-12.287-3.891-17.655    L84.658,35.45z"/>
		<polygon fill="#000000" points="62.604,23.214 64.55,15.342 64.55,15.342   "/>
	</g>
</g>
</svg>