<svg xmlns="http://www.w3.org/2000/svg" xmlns:xlink="http://www.w3.org/1999/xlink" version="1.1" x="0px" y="0px" width="100px" height="100px" viewBox="0 0 100 100" enable-background="new 0 0 100 100" xml:space="preserve">
<g id="Captions">
</g>
<g id="Your_Icon">
	<path d="M49.998,4C24.596,4,4,24.597,4,50c0,25.405,20.596,46,45.998,46C75.404,96,96,75.405,96,50C96,24.597,75.404,4,49.998,4z    M49.998,86C30.119,86,14,69.882,14,50c0-19.883,16.119-36,35.998-36C69.883,14,86,30.117,86,50C86,69.882,69.883,86,49.998,86z"/>
	<circle cx="36.5" cy="38.86" r="6.667"/>
	<circle cx="63.5" cy="38.86" r="6.667"/>
	<path d="M70.84,57.883c-2.119-1.297-4.89-0.629-6.187,1.49c-2.71,4.431-8.462,7.293-14.653,7.293s-11.943-2.862-14.653-7.293   c-1.297-2.119-4.067-2.787-6.187-1.49c-2.12,1.297-2.787,4.067-1.49,6.188C32.046,71.223,40.602,75.666,50,75.666   s17.955-4.443,22.331-11.596C73.628,61.95,72.961,59.18,70.84,57.883z"/>
</g>
</svg>