<?xml version="1.0" encoding="utf-8"?>
<!-- Generator: Adobe Illustrator 16.0.0, SVG Export Plug-In . SVG Version: 6.00 Build 0)  -->
<!DOCTYPE svg PUBLIC "-//W3C//DTD SVG 1.1//EN" "http://www.w3.org/Graphics/SVG/1.1/DTD/svg11.dtd">
<svg version="1.1" id="Layer_1" xmlns="http://www.w3.org/2000/svg" xmlns:xlink="http://www.w3.org/1999/xlink" x="0px" y="0px"
	 width="14px" height="14px" viewBox="0 0 14 14" enable-background="new 0 0 14 14" xml:space="preserve">
<path fill="#00A2D7" d="M11.359,9.076c-0.633,0-1.207,0.241-1.641,0.636l-4.667-2.38C5.07,7.211,5.083,7.088,5.083,6.961
	c0-0.071-0.005-0.144-0.011-0.212l4.711-2.402c0.426,0.36,0.975,0.578,1.574,0.578c1.35,0,2.441-1.093,2.441-2.439
	c0-1.348-1.094-2.441-2.441-2.441S8.918,1.138,8.918,2.485c0,0.074,0.004,0.146,0.01,0.22L4.224,5.104
	C3.798,4.74,3.247,4.521,2.642,4.521c-1.348,0-2.44,1.093-2.44,2.44c0,1.349,1.093,2.44,2.44,2.44c0.543,0,1.045-0.182,1.449-0.479
	l4.833,2.463c-0.002,0.044-0.006,0.087-0.006,0.13c0,1.35,1.092,2.441,2.439,2.441s2.441-1.093,2.441-2.441
	C13.801,10.167,12.707,9.076,11.359,9.076z"/>
</svg>
