<?xml version="1.0" encoding="utf-8"?>
<!-- Generator: Adobe Illustrator 16.0.0, SVG Export Plug-In . SVG Version: 6.00 Build 0)  -->
<!DOCTYPE svg PUBLIC "-//W3C//DTD SVG 1.1//EN" "http://www.w3.org/Graphics/SVG/1.1/DTD/svg11.dtd">
<svg version="1.1" id="Layer_1" xmlns="http://www.w3.org/2000/svg" xmlns:xlink="http://www.w3.org/1999/xlink" x="0px" y="0px"
	 width="14px" height="14px" viewBox="43 43 14 14" enable-background="new 43 43 14 14" xml:space="preserve">
<path fill="#9A9A9A" d="M54.357,52.077c-0.632,0-1.206,0.241-1.64,0.636l-4.667-2.38c0.019-0.121,0.031-0.244,0.031-0.371
	c0-0.071-0.005-0.143-0.01-0.212l4.71-2.402c0.426,0.36,0.976,0.578,1.575,0.578c1.349,0,2.441-1.093,2.441-2.44
	c0-1.348-1.093-2.441-2.441-2.441s-2.44,1.093-2.44,2.441c0,0.074,0.004,0.147,0.011,0.22l-4.704,2.399
	c-0.426-0.364-0.978-0.584-1.582-0.584c-1.348,0-2.441,1.093-2.441,2.441c0,1.348,1.093,2.44,2.441,2.44
	c0.543,0,1.044-0.181,1.449-0.479l4.832,2.463c-0.002,0.044-0.006,0.087-0.006,0.13c0,1.349,1.092,2.441,2.44,2.441
	c1.348,0,2.441-1.093,2.441-2.441C56.799,53.168,55.705,52.077,54.357,52.077z"/>
</svg>
