<svg xmlns="http://www.w3.org/2000/svg" xmlns:xlink="http://www.w3.org/1999/xlink" xmlns:sketch="http://www.bohemiancoding.com/sketch/ns" width="35px" height="22px" viewBox="0 0 35 22" version="1.1">
    <!-- Generator: Sketch 3.0.1 (7597) - http://www.bohemiancoding.com/sketch -->
    <title>device_monitor_screen_tablet_ipad_iphone_smartphone_responsive</title>
    <description>Created with Sketch.</description>
    <defs>
        <path d="M7,18.8571429 L18,18.8571429 L18,17.8095238 L7,17.8095238 L7,18.8571429 Z M2,11 L2,2.0952381 C2,0 4,0 4,0 L22,0 C22,0 24,0 24,2.0952381 L24,10 L23,10 L23,2.13714286 C23,1.04761905 22,1.04761905 22,1.04761905 L4,1.04761905 C4,1.04761905 3,1.04761905 3,2.13714286 L3,11 L2,11 L2,11 Z M7,14.6666667 L18,14.6666667 L18,14.6666667 L18,13.6190476 L7,13.6190476 L7,14.6666667 L7,14.6666667 Z M11,20.952381 L11,18.8571429 L15,18.8571429 L15,20.952381 L17,20.952381 L17,22 L9,22 L9,20.952381 L11,20.952381 L11,20.952381 Z M13,16.7619048 C13.2761424,16.7619048 13.5,16.5273872 13.5,16.2380952 C13.5,15.9488032 13.2761424,15.7142857 13,15.7142857 C12.7238576,15.7142857 12.5,15.9488032 12.5,16.2380952 C12.5,16.5273872 12.7238576,16.7619048 13,16.7619048 Z M20.0008717,22 L33.9991283,22 C34.5518945,22 35,21.555163 35,21.0044225 L35,11.9955775 C35,11.4457352 34.5553691,11 33.9991283,11 L20.0008717,11 C19.4481055,11 19,11.444837 19,11.9955775 L19,21.0044225 C19,21.5542648 19.4446309,22 20.0008717,22 Z M34.5,16.5 C34.5,16.2238576 34.2761424,16 34,16 C33.7238576,16 33.5,16.2238576 33.5,16.5 C33.5,16.7761424 33.7238576,17 34,17 C34.2761424,17 34.5,16.7761424 34.5,16.5 Z M20.5,12 L20.5,21 L33,21 L33,12 L20.5,12 Z M0.491005182,12 C0.219830508,12 0,12.2276528 0,12.5096495 L0,21.4903505 C0,21.7718221 0.227880478,22 0.491005182,22 L5.50899482,22 C5.78016949,22 6,21.7723472 6,21.4903505 L6,12.5096495 C6,12.2281779 5.77211952,12 5.50899482,12 L0.491005182,12 Z M1,13 L1,20 L5,20 L5,13 L1,13 Z M3,21.5 C3.27614237,21.5 3.5,21.2761424 3.5,21 C3.5,20.7238576 3.27614237,20.5 3,20.5 C2.72385763,20.5 2.5,20.7238576 2.5,21 C2.5,21.2761424 2.72385763,21.5 3,21.5 Z" id="path-1"/>
    </defs>
    <g id="miu" stroke="none" stroke-width="1" fill="none" fill-rule="evenodd" sketch:type="MSPage">
        <g id="device_monitor_screen_tablet_ipad_iphone_smartphone_responsive">
            <use fill="#000000" fill-rule="evenodd" sketch:type="MSShapeGroup" xlink:href="#path-1"/>
            <use fill="none" xlink:href="#path-1"/>
        </g>
    </g>
</svg>