<?xml version="1.0" encoding="utf-8"?>
<!-- Generator: Adobe Illustrator 16.0.0, SVG Export Plug-In . SVG Version: 6.00 Build 0)  -->
<!DOCTYPE svg PUBLIC "-//W3C//DTD SVG 1.1//EN" "http://www.w3.org/Graphics/SVG/1.1/DTD/svg11.dtd">
<svg version="1.1" id="Calque_1" xmlns="http://www.w3.org/2000/svg" xmlns:xlink="http://www.w3.org/1999/xlink" x="0px" y="0px"
	 width="139px" height="87px" viewBox="0 0 139 87" enable-background="new 0 0 139 87" xml:space="preserve">
<g enable-background="new    ">
	<path fill="#2CB8F3" d="M40.491,65.988c-2.664,0-5.05-0.462-7.159-1.388c-2.109-0.924-3.904-2.182-5.384-3.773
		c-1.481-1.591-2.627-3.497-3.441-5.717c-0.815-2.22-1.221-4.624-1.221-7.215c0-2.516,0.388-4.885,1.165-7.104
		c0.777-2.22,1.887-4.162,3.33-5.827c1.443-1.665,3.2-2.979,5.272-3.94c2.071-0.961,4.44-1.443,7.104-1.443
		c2.293,0,4.44,0.389,6.438,1.166c1.998,0.776,3.885,1.775,5.661,2.997c1.776,1.221,3.441,2.591,4.995,4.106
		c1.554,1.518,3.07,3.053,4.551,4.606c1.405-1.554,2.867-3.089,4.385-4.606c1.516-1.516,3.145-2.886,4.884-4.106
		c1.737-1.222,3.589-2.221,5.55-2.997c1.96-0.777,4.052-1.166,6.271-1.166c2.59,0,4.939,0.463,7.049,1.388
		c2.109,0.926,3.922,2.202,5.439,3.829c1.516,1.629,2.681,3.553,3.496,5.772c0.813,2.22,1.221,4.589,1.221,7.104
		c0,2.592-0.389,4.995-1.165,7.216c-0.777,2.22-1.906,4.145-3.386,5.771c-1.48,1.629-3.274,2.924-5.383,3.885
		c-2.109,0.963-4.496,1.443-7.16,1.443c-2.221,0-4.312-0.351-6.271-1.055c-1.961-0.702-3.793-1.627-5.494-2.774
		c-1.704-1.146-3.35-2.442-4.94-3.886c-1.592-1.442-3.091-2.941-4.496-4.495c-1.481,1.481-2.979,2.941-4.495,4.385
		c-1.518,1.442-3.146,2.757-4.884,3.94c-1.74,1.185-3.59,2.128-5.55,2.83C44.912,65.638,42.784,65.988,40.491,65.988z
		 M40.491,57.441c1.479,0,2.959-0.295,4.44-0.889c1.479-0.591,2.904-1.368,4.274-2.33c1.368-0.961,2.664-1.979,3.885-3.053
		c1.221-1.072,2.312-2.127,3.274-3.164c-1.037-0.961-2.184-2.034-3.441-3.219c-1.259-1.183-2.591-2.256-3.996-3.219
		c-1.406-0.961-2.85-1.776-4.329-2.442c-1.481-0.666-2.961-0.999-4.44-0.999c-2.738,0-4.884,0.999-6.438,2.997
		c-1.554,1.998-2.331,4.256-2.331,6.771c0,2.812,0.813,5.105,2.442,6.882C35.458,56.553,37.678,57.441,40.491,57.441z
		 M83.227,57.441c2.811,0,4.975-0.905,6.492-2.72c1.517-1.812,2.276-4.052,2.276-6.716c0-2.812-0.777-5.161-2.331-7.048
		c-1.555-1.888-3.812-2.831-6.771-2.831c-1.48,0-2.961,0.333-4.439,0.999c-1.481,0.666-2.905,1.499-4.273,2.498
		c-1.371,0.999-2.664,2.092-3.885,3.274c-1.222,1.185-2.314,2.258-3.275,3.219c1.11,1.037,2.275,2.109,3.497,3.219
		c1.221,1.11,2.497,2.109,3.829,2.997c1.332,0.889,2.736,1.629,4.219,2.22C80.043,57.146,81.598,57.441,83.227,57.441z"/>
</g>
<path fill="none" stroke="#000000" stroke-width="7" stroke-miterlimit="10" d="M19.818,61.943c-4.204,0-8.814,0.023-12.548-4.053
	c-0.787-0.858-1.963-2.798-2.468-6.056C4.603,50.551,4.476,45.4,4.394,38.92C4.207,23.891,4.269,0.398,4.269,0.333l0,0"/>
<path fill="none" stroke="#000000" stroke-width="7" stroke-miterlimit="10" d="M107.861,85.5c0.011-1.784,0.041-6.05,0.041-7.428
	c0-4.215-0.041-5.954-0.041-9.381c0-8.688,0.039-17.768,0-26.458c-0.027-6.6,3.539-8.964,9.048-8.963
	c4.116,0,11.134-0.846,13.973,2.278c3.772,4.149,3.4,6.39,3.618,13.18c0.264,8.256,0.426,10.799-3.143,13.832
	c-3.104,2.638-6.676,1.971-10.969,2.195c-4.356,0.227-9.439-0.163-13.556-0.163"/>
</svg>
